<svg xmlns="http://www.w3.org/2000/svg" viewBox="6.84 -74.61 78.86 78.81">
  <path d="M46.2402 4.19922C68.0176 4.19922 85.6934-13.4766 85.6934-35.2051C85.6934-56.9336 68.0176-74.6094 46.2402-74.6094C24.5117-74.6094 6.83594-56.9336 6.83594-35.2051C6.83594-13.4766 24.5117 4.19922 46.2402 4.19922Z" fill="#8E8E93"/>
  <path d="M46.2402-9.08203C45.5078-9.08203 44.9707-9.57031 44.7754-10.8398L44.5312-12.5488C44.4336-13.2324 44.0918-13.5742 43.3105-13.623C42.6758-13.6719 42.334-13.4277 42.0898-12.8418L41.3574-11.2305C40.8691-9.96094 40.0879-9.86328 39.502-10.0098C38.8672-10.1562 38.3789-10.791 38.5254-11.9629L38.7695-13.7695C38.8672-14.502 38.5742-14.7949 37.8906-15.0391C37.3047-15.332 36.8652-15.2344 36.4258-14.7461L35.2539-13.2812C34.4238-12.2559 33.7891-12.207 33.2031-12.5977C32.6172-12.8906 32.2266-13.4766 32.7637-14.7461L33.4473-16.4551C33.6914-17.1387 33.5449-17.5781 33.0078-17.9199C32.4219-18.3594 31.9336-18.5059 31.3965-18.0176L29.9805-16.9434C28.9551-16.1621 28.2715-16.2598 27.7832-16.6992C27.2949-17.2363 27.1973-17.9199 27.9785-18.9453L29.0527-20.3613C29.4922-20.9473 29.3945-21.4355 29.0039-21.9727C28.5645-22.5098 28.125-22.7051 27.4902-22.4121L25.8301-21.6797C24.5605-21.2402 23.9746-21.4844 23.6328-22.168C23.291-22.7539 23.3398-23.4375 24.3652-24.2188L25.7812-25.3418C26.3672-25.8301 26.416-26.3184 26.1719-26.8555C25.8789-27.4902 25.5371-27.832 24.8047-27.7344L23.0469-27.4414C21.7773-27.3438 21.1914-27.832 21.0449-28.4668C20.8496-29.0039 21.0449-29.7852 22.2168-30.2734L23.9258-31.0059C24.5605-31.25 24.7559-31.7383 24.707-32.373C24.6582-33.0078 24.3164-33.4473 23.584-33.5449L21.8262-33.7891C20.6055-33.8867 20.166-34.5215 20.166-35.2051C20.166-35.8887 20.6055-36.5234 21.8262-36.6211L23.584-36.8652C24.3164-36.9629 24.5605-37.3535 24.6582-37.9395C24.7559-38.7207 24.5605-39.1602 23.9258-39.4043L22.2656-40.1367C21.0449-40.625 20.8984-41.4062 21.0449-41.9434C21.1914-42.627 21.7773-43.0664 22.998-42.9688L24.8047-42.7246C25.4395-42.6758 25.7812-42.8711 26.123-43.5059C26.416-44.0918 26.3184-44.6289 25.7812-45.0684L24.3652-46.1914C23.5352-46.8262 23.2422-47.5586 23.6328-48.291C24.0723-48.9746 24.7559-49.1211 25.8301-48.7305L27.4902-48.0469C28.0273-47.8027 28.418-47.8516 28.9551-48.4375C29.4434-49.0234 29.4922-49.4629 29.0527-50.0488L27.9785-51.5137C27.2949-52.3926 27.2461-53.0762 27.7832-53.7109C28.3203-54.248 29.0039-54.1992 29.9805-53.5156L31.4453-52.4414C31.9824-51.9531 32.5195-52.0508 33.0078-52.4902C33.5449-52.8809 33.6914-53.2715 33.4473-53.9551L32.7637-55.6641C32.2266-56.9336 32.5684-57.4707 33.252-57.8125C33.7891-58.1543 34.5215-58.0566 35.2539-57.1289L36.4258-55.6641C36.8652-55.0781 37.207-55.0293 37.8906-55.3711C38.5742-55.6152 38.8672-55.9082 38.7695-56.6406L38.5742-58.4473C38.3789-59.5215 38.7695-60.2051 39.502-60.4004C40.2344-60.5957 40.918-60.3027 41.4062-59.1797L42.1387-57.5684C42.3828-56.9824 42.7246-56.7383 43.4082-56.8359C44.043-56.8848 44.4336-57.1777 44.5312-57.8613L44.7754-59.6191C44.9707-60.8398 45.5078-61.3281 46.2402-61.3281C46.9238-61.3281 47.5586-60.8398 47.7051-59.5703L47.998-57.8613C48.0957-57.1289 48.3398-56.8848 48.9746-56.7871C49.8047-56.6895 50.1953-56.9336 50.4395-57.5684L51.1719-59.1797C51.6113-60.3027 52.2949-60.5469 52.9785-60.4004C53.7109-60.2539 54.1504-59.6191 54.0527-58.4473L53.7598-56.6406C53.6621-55.9082 53.9551-55.6152 54.541-55.3711C55.2246-55.0781 55.6641-55.0781 56.1035-55.6641L57.2754-57.1289C57.959-58.0078 58.6426-58.252 59.3262-57.8125C59.8633-57.5195 60.2539-56.9336 59.7168-55.6641L59.082-53.9551C58.8379-53.2227 58.9355-52.9297 59.4238-52.4902C60.0098-52.002 60.498-51.9043 61.084-52.3926L62.5-53.4668C63.4766-54.248 64.209-54.1016 64.6973-53.7109C65.1367-53.2227 65.332-52.4902 64.502-51.4648L63.4277-50.0488C62.9883-49.4629 62.9883-49.0234 63.4766-48.4375C63.916-47.9004 64.4043-47.7051 65.0391-47.998L66.6992-48.7305C67.8711-49.1699 68.4082-48.877 68.8965-48.2422C69.1895-47.6562 69.1895-46.9727 68.1152-46.1914L66.6992-45.0684C66.1133-44.5801 66.1133-44.1895 66.3574-43.5059C66.5527-42.9199 66.9922-42.5781 67.7246-42.6758L69.4824-42.9688C70.752-43.1152 71.2891-42.5781 71.4844-41.9434C71.6309-41.4062 71.4844-40.625 70.3125-40.1367L68.5547-39.4043C67.9688-39.1602 67.7246-38.7207 67.8223-38.0371C67.9199-37.4023 68.1641-36.9629 68.9453-36.8652L70.7031-36.6211C71.9238-36.5234 72.3633-35.8887 72.3633-35.2051C72.3633-34.5215 71.9238-33.8867 70.7031-33.7891L68.9453-33.5449C68.1641-33.4473 67.8711-33.0078 67.8223-32.4219C67.7246-31.5918 68.0176-31.2012 68.5547-31.0059L70.2637-30.2734C71.4844-29.7852 71.582-29.0039 71.4844-28.4668C71.3379-27.7832 70.752-27.3438 69.5312-27.4414L67.7246-27.6855C66.9434-27.7832 66.6016-27.4902 66.4062-26.9043C66.1621-26.3184 66.1621-25.8301 66.6992-25.3418L68.1152-24.2188C69.1895-23.4375 69.1895-22.7539 68.8477-22.2168C68.5059-21.4844 67.9199-21.2402 66.6992-21.6797L65.0391-22.3633C64.3066-22.7051 63.916-22.5098 63.4766-21.9727C63.0371-21.4355 63.0371-20.9473 63.4277-20.3613L64.502-18.8965C65.332-17.9199 65.1855-17.2363 64.6973-16.6992C64.1602-16.2109 63.4766-16.1621 62.5-16.8945L61.0352-17.9688C60.498-18.457 60.0586-18.3594 59.4727-17.9199C58.9844-17.5781 58.8379-17.1875 59.082-16.4551L59.7168-14.7461C60.2539-13.4766 59.8633-12.8906 59.3262-12.5977C58.7891-12.2559 58.0566-12.2559 57.2754-13.2812L56.1035-14.7461C55.6641-15.332 55.1758-15.332 54.541-15.0391C53.9062-14.7949 53.6621-14.502 53.7598-13.7695L53.9551-11.9629C54.1504-10.791 53.6133-10.1562 52.9785-10.0098C52.3926-9.86328 51.6602-10.0098 51.123-11.2305L50.3906-12.8418C50.1465-13.4277 49.8047-13.6719 49.0723-13.5742C48.4375-13.4766 48.0469-13.2324 47.9492-12.5488L47.7051-10.791C47.5586-9.57031 46.9238-9.08203 46.2402-9.08203ZM33.4473-23.0469C34.6191-21.8262 35.7422-22.1191 36.6211-23.6328L42.2852-33.3008C43.0176-34.7656 43.0664-35.6445 42.2852-37.1094L36.6211-46.7773C35.7422-48.291 34.6191-48.584 33.4473-47.3633C30.3711-44.1895 28.5645-39.9902 28.5645-35.2051C28.5645-30.4199 30.3711-26.2695 33.4473-23.0469ZM46.1426-17.627C54.1016-17.627 60.791-22.9492 62.9395-30.3711C63.3789-31.8848 62.5977-32.8125 60.8398-32.8125L49.6582-32.8125C48.1445-32.8125 47.2168-32.2754 46.4355-30.957L40.8203-21.2402C39.9414-19.7266 40.2832-18.6035 41.9434-18.2129C43.3594-17.8223 44.6777-17.627 46.1426-17.627ZM45.9961-33.5449C46.9238-33.5449 47.6074-34.2773 47.6074-35.1562C47.6074-36.084 46.9238-36.7676 45.9961-36.7676C45.1172-36.7676 44.3848-36.084 44.3848-35.1562C44.3848-34.2773 45.1172-33.5449 45.9961-33.5449ZM49.6582-37.5977L60.8398-37.5977C62.5977-37.5977 63.3789-38.5254 62.9395-40.0391C60.791-47.5098 54.1016-52.7832 46.1426-52.7832C44.6777-52.7832 43.3594-52.5879 41.9434-52.1973C40.2832-51.8066 39.9414-50.6836 40.8203-49.1699L46.4355-39.4531C47.2168-38.1348 48.1445-37.5977 49.6582-37.5977Z" fill="#FFFFFF"/>
</svg>
