<?xml version="1.0" encoding="UTF-8"?>
<!--Generator: Apple Native CoreSVG 341-->
<!DOCTYPE svg
PUBLIC "-//W3C//DTD SVG 1.1//EN"
       "http://www.w3.org/Graphics/SVG/1.1/DTD/svg11.dtd">
<svg version="1.1" xmlns="http://www.w3.org/2000/svg" xmlns:xlink="http://www.w3.org/1999/xlink" viewBox="0 0 3300 2200">
 <!--glyph: "100EBB", point size: 100.0, font version: "22.0d4e4", template writer version: "138.0.0"-->
 <style>.defaults {-sfsymbols-wiggle-style:clockwise;-sfsymbols-rotates-clockwise:true;-sfsymbols-draw-reverses-motion-groups:true}

.monochrome-0 {-sfsymbols-motion-group:1;-sfsymbols-layer-tags:_enclosure.fill circle gear.circle.fill}
.monochrome-1 {opacity:0.0;-sfsymbols-clear-behind:true;-sfsymbols-motion-group:0;-sfsymbols-always-pulses:true;-sfsymbols-layer-tags:gear.circle.fill}

.multicolor-0:systemGrayColor {-sfsymbols-motion-group:1;-sfsymbols-layer-tags:_enclosure.fill circle gear.circle.fill}
.multicolor-1:white {-sfsymbols-motion-group:0;-sfsymbols-always-pulses:true;-sfsymbols-layer-tags:gear.circle.fill}

.hierarchical-0:tertiary {-sfsymbols-motion-group:1;-sfsymbols-layer-tags:_enclosure.fill circle gear.circle.fill}
.hierarchical-1:primary {-sfsymbols-motion-group:0;-sfsymbols-always-pulses:true;-sfsymbols-layer-tags:gear.circle.fill}

.SFSymbolsPreviewWireframe {fill:none;opacity:1.0;stroke:black;stroke-width:0.5}
</style>
 <g id="Notes">
  <rect height="2200" id="artboard" style="fill:white;opacity:1" width="3300" x="0" y="0"/>
  <line style="fill:none;stroke:black;opacity:1;stroke-width:0.5;" x1="263" x2="3036" y1="292" y2="292"/>
  <text style="stroke:none;fill:black;font-family:sans-serif;font-size:13;font-weight:bold;" transform="matrix(1 0 0 1 263 322)">Weight/Scale Variations</text>
  <text style="stroke:none;fill:black;font-family:sans-serif;font-size:13;text-anchor:middle;" transform="matrix(1 0 0 1 559.711 322)">Ultralight</text>
  <text style="stroke:none;fill:black;font-family:sans-serif;font-size:13;text-anchor:middle;" transform="matrix(1 0 0 1 856.422 322)">Thin</text>
  <text style="stroke:none;fill:black;font-family:sans-serif;font-size:13;text-anchor:middle;" transform="matrix(1 0 0 1 1153.13 322)">Light</text>
  <text style="stroke:none;fill:black;font-family:sans-serif;font-size:13;text-anchor:middle;" transform="matrix(1 0 0 1 1449.84 322)">Regular</text>
  <text style="stroke:none;fill:black;font-family:sans-serif;font-size:13;text-anchor:middle;" transform="matrix(1 0 0 1 1746.56 322)">Medium</text>
  <text style="stroke:none;fill:black;font-family:sans-serif;font-size:13;text-anchor:middle;" transform="matrix(1 0 0 1 2043.27 322)">Semibold</text>
  <text style="stroke:none;fill:black;font-family:sans-serif;font-size:13;text-anchor:middle;" transform="matrix(1 0 0 1 2339.98 322)">Bold</text>
  <text style="stroke:none;fill:black;font-family:sans-serif;font-size:13;text-anchor:middle;" transform="matrix(1 0 0 1 2636.69 322)">Heavy</text>
  <text style="stroke:none;fill:black;font-family:sans-serif;font-size:13;text-anchor:middle;" transform="matrix(1 0 0 1 2933.4 322)">Black</text>
  <line style="fill:none;stroke:black;opacity:1;stroke-width:0.5;" x1="263" x2="3036" y1="1903" y2="1903"/>
  <g transform="matrix(0.2 0 0 0.2 263 1933)">
   <path d="m46.2402 4.15039c21.7773 0 39.4531-17.627 39.4531-39.4043s-17.6758-39.4043-39.4531-39.4043c-21.7285 0-39.4043 17.627-39.4043 39.4043s17.6758 39.4043 39.4043 39.4043Zm0-7.42188c-17.6758 0-31.9336-14.3066-31.9336-31.9824s14.2578-31.9824 31.9336-31.9824 31.9824 14.3066 31.9824 31.9824-14.3066 31.9824-31.9824 31.9824Zm3.61328-17.7734v-28.4668c0-2.24609-1.46484-3.75977-3.71094-3.75977-2.14844 0-3.61328 1.51367-3.61328 3.75977v28.4668c0 2.19727 1.46484 3.71094 3.61328 3.71094 2.24609 0 3.71094-1.51367 3.71094-3.71094Zm-17.8223-10.5957h28.418c2.19727 0 3.71094-1.46484 3.71094-3.61328 0-2.19727-1.51367-3.71094-3.71094-3.71094h-28.418c-2.24609 0-3.75977 1.51367-3.75977 3.71094 0 2.14844 1.51367 3.61328 3.75977 3.61328Z"/>
  </g>
  <g transform="matrix(0.2 0 0 0.2 281.506 1933)">
   <path d="m58.5449 14.5508c27.4902 0 49.8047-22.3145 49.8047-49.8047s-22.3145-49.8047-49.8047-49.8047-49.8047 22.3145-49.8047 49.8047 22.3145 49.8047 49.8047 49.8047Zm0-8.30078c-22.9492 0-41.5039-18.5547-41.5039-41.5039s18.5547-41.5039 41.5039-41.5039 41.5039 18.5547 41.5039 41.5039-18.5547 41.5039-41.5039 41.5039Zm4.05273-23.0957v-36.9141c0-2.49023-1.70898-4.19922-4.15039-4.19922-2.39258 0-4.05273 1.70898-4.05273 4.19922v36.9141c0 2.44141 1.66016 4.15039 4.05273 4.15039 2.44141 0 4.15039-1.66016 4.15039-4.15039Zm-22.5586-14.4043h36.9629c2.44141 0 4.15039-1.61133 4.15039-4.00391 0-2.44141-1.70898-4.15039-4.15039-4.15039h-36.9629c-2.49023 0-4.15039 1.70898-4.15039 4.15039 0 2.39258 1.66016 4.00391 4.15039 4.00391Z"/>
  </g>
  <g transform="matrix(0.2 0 0 0.2 304.924 1933)">
   <path d="m74.8535 28.3203c35.1074 0 63.623-28.4668 63.623-63.5742s-28.5156-63.623-63.623-63.623-63.5742 28.5156-63.5742 63.623 28.4668 63.5742 63.5742 63.5742Zm0-9.08203c-30.127 0-54.4922-24.3652-54.4922-54.4922s24.3652-54.4922 54.4922-54.4922 54.4922 24.3652 54.4922 54.4922-24.3652 54.4922-54.4922 54.4922Zm4.44336-30.3223v-48.4863c0-2.73438-1.85547-4.63867-4.54102-4.63867-2.58789 0-4.44336 1.9043-4.44336 4.63867v48.4863c0 2.68555 1.85547 4.58984 4.44336 4.58984 2.68555 0 4.54102-1.85547 4.54102-4.58984Zm-28.7109-19.7754h48.4863c2.68555 0 4.58984-1.80664 4.58984-4.39453 0-2.73438-1.85547-4.58984-4.58984-4.58984h-48.4863c-2.73438 0-4.58984 1.85547-4.58984 4.58984 0 2.58789 1.85547 4.39453 4.58984 4.39453Z"/>
  </g>
  <text style="stroke:none;fill:black;font-family:sans-serif;font-size:13;font-weight:bold;" transform="matrix(1 0 0 1 263 1953)">Design Variations</text>
  <text style="stroke:none;fill:black;font-family:sans-serif;font-size:13;" transform="matrix(1 0 0 1 263 1971)">Symbols are supported in up to nine weights and three scales.</text>
  <text style="stroke:none;fill:black;font-family:sans-serif;font-size:13;" transform="matrix(1 0 0 1 263 1989)">For optimal layout with text and other symbols, vertically align</text>
  <text style="stroke:none;fill:black;font-family:sans-serif;font-size:13;" transform="matrix(1 0 0 1 263 2007)">symbols with the adjacent text.</text>
  <line style="fill:none;stroke:#00AEEF;stroke-width:0.5;opacity:1.0;" x1="776" x2="776" y1="1919" y2="1933"/>
  <g transform="matrix(0.2 0 0 0.2 776 1933)">
   <path d="m16.5527 0.78125c2.58789 0 3.85742-0.976562 4.78516-3.71094l20.5566-57.5195h0.244141l20.6055 57.5195c0.927734 2.73438 2.19727 3.71094 4.73633 3.71094 2.58789 0 4.24805-1.5625 4.24805-4.00391 0-0.830078-0.146484-1.61133-0.537109-2.63672l-22.9004-60.9863c-1.12305-2.97852-3.125-4.49219-6.25-4.49219-3.02734 0-5.07812 1.46484-6.15234 4.44336l-22.9004 61.084c-0.390625 1.02539-0.537109 1.80664-0.537109 2.63672 0 2.44141 1.5625 3.95508 4.10156 3.95508Zm10.2051-20.9473h30.6641c2.00195 0 3.66211-1.66016 3.66211-3.66211 0-2.05078-1.66016-3.66211-3.66211-3.66211h-30.6641c-2.00195 0-3.66211 1.61133-3.66211 3.66211 0 2.00195 1.66016 3.66211 3.66211 3.66211Z"/>
  </g>
  <line style="fill:none;stroke:#00AEEF;stroke-width:0.5;opacity:1.0;" x1="792.836" x2="792.836" y1="1919" y2="1933"/>
  <text style="stroke:none;fill:black;font-family:sans-serif;font-size:13;font-weight:bold;" transform="matrix(1 0 0 1 776 1953)">Margins</text>
  <text style="stroke:none;fill:black;font-family:sans-serif;font-size:13;" transform="matrix(1 0 0 1 776 1971)">Leading and trailing margins on the left and right side of each symbol</text>
  <text style="stroke:none;fill:black;font-family:sans-serif;font-size:13;" transform="matrix(1 0 0 1 776 1989)">can be adjusted by modifying the x-location of the margin guidelines.</text>
  <text style="stroke:none;fill:black;font-family:sans-serif;font-size:13;" transform="matrix(1 0 0 1 776 2007)">Modifications are automatically applied proportionally to all</text>
  <text style="stroke:none;fill:black;font-family:sans-serif;font-size:13;" transform="matrix(1 0 0 1 776 2025)">scales and weights.</text>
  <g transform="matrix(0.2 0 0 0.2 1289 1933)">
   <path d="m14.209 13.1348 7.86133 7.86133c4.29688 4.39453 9.32617 4.10156 13.8672-1.02539l60.6934-68.2129-4.88281-4.88281-60.2539 67.6758c-1.80664 1.95312-3.4668 2.44141-5.81055 0.0976562l-5.17578-5.12695c-2.29492-2.29492-1.80664-3.95508 0.195312-5.81055l67.4805-62.1582-4.88281-4.83398-68.0664 62.5977c-4.98047 4.58984-5.32227 9.47266-1.02539 13.8184Zm44.873-97.4609c-2.05078 2.00195-2.24609 4.88281-1.07422 6.78711 1.12305 1.80664 3.4668 3.02734 6.5918 2.24609 5.85938-1.66016 12.5977-2.39258 18.8965 0.927734l-2.68555 7.12891c-1.61133 4.00391-0.732422 6.88477 1.70898 9.42383l10.2539 10.3027c2.34375 2.39258 4.54102 2.44141 7.08008 1.95312l4.44336-0.732422 2.58789 2.53906-0.195312 2.24609c-0.0976562 2.29492 0.537109 4.29688 2.7832 6.49414l3.36914 3.32031c2.29492 2.29492 5.51758 2.49023 7.8125 0.195312l12.9883-13.0371c2.29492-2.34375 2.14844-5.37109-0.195312-7.66602l-3.41797-3.41797c-2.19727-2.19727-4.05273-3.02734-6.34766-2.88086l-2.34375 0.244141-2.44141-2.44141 1.02539-4.6875c0.634766-2.73438-0.244141-4.98047-2.88086-7.61719l-11.2793-11.1816c-12.9395-12.8418-35.5957-11.0352-46.6797-0.146484Zm7.08008 2.05078c8.78906-6.39648 25.9766-5.66406 33.6914 1.95312l12.3047 12.207c1.02539 1.02539 1.2207 1.80664 0.927734 3.32031l-1.46484 6.64062 6.73828 6.68945 4.39453-0.244141c1.12305-0.0488281 1.51367 0.0488281 2.34375 0.878906l2.53906 2.49023-10.8398 10.8398-2.49023-2.49023c-0.830078-0.878906-0.976562-1.2207-0.927734-2.39258l0.292969-4.3457-6.68945-6.73828-6.83594 1.17188c-1.41602 0.292969-2.05078 0.195312-3.17383-0.878906l-8.93555-8.88672c-1.07422-1.02539-1.17188-1.70898-0.488281-3.36914l4.58984-11.4746c-6.10352-6.34766-17.041-7.51953-25.5859-4.58984-0.683594 0.244141-0.927734-0.390625-0.390625-0.78125Z"/>
  </g>
  <text style="stroke:none;fill:black;font-family:sans-serif;font-size:13;font-weight:bold;" transform="matrix(1 0 0 1 1289 1953)">Exporting</text>
  <text style="stroke:none;fill:black;font-family:sans-serif;font-size:13;" transform="matrix(1 0 0 1 1289 1971)">Symbols should be outlined when exporting to ensure the</text>
  <text style="stroke:none;fill:black;font-family:sans-serif;font-size:13;" transform="matrix(1 0 0 1 1289 1989)">design is preserved when submitting to Xcode.</text>
  <text id="template-version" style="stroke:none;fill:black;font-family:sans-serif;font-size:13;text-anchor:end;" transform="matrix(1 0 0 1 3036 1933)">Template v.7.0</text>
  <text style="stroke:none;fill:black;font-family:sans-serif;font-size:13;text-anchor:end;" transform="matrix(1 0 0 1 3036 1951)">Requires Xcode 26 or greater</text>
  <text id="descriptive-name" style="stroke:none;fill:black;font-family:sans-serif;font-size:13;text-anchor:end;" transform="matrix(1 0 0 1 3036 1969)">Generated from gear.circle.fill</text>
  <text style="stroke:none;fill:black;font-family:sans-serif;font-size:13;text-anchor:end;" transform="matrix(1 0 0 1 3036 1987)">Typeset at 100.0 points</text>
  <text style="stroke:none;fill:black;font-family:sans-serif;font-size:13;" transform="matrix(1 0 0 1 263 726)">Small</text>
  <text style="stroke:none;fill:black;font-family:sans-serif;font-size:13;" transform="matrix(1 0 0 1 263 1156)">Medium</text>
  <text style="stroke:none;fill:black;font-family:sans-serif;font-size:13;" transform="matrix(1 0 0 1 263 1586)">Large</text>
 </g>
 <g id="Guides">
  <g id="H-reference" style="fill:#27AAE1;stroke:none;" transform="matrix(1 0 0 1 339 696)">
   <path d="M0.993654 0L3.63775 0L29.3281-67.1323L30.0303-67.1323L30.0303-70.459L28.1226-70.459ZM11.6885-24.4799L46.9815-24.4799L46.2315-26.7285L12.4385-26.7285ZM55.1196 0L57.7637 0L30.6382-70.459L29.4326-70.459L29.4326-67.1323Z"/>
  </g>
  <line id="Baseline-S" style="fill:none;stroke:#27AAE1;opacity:1;stroke-width:0.5;" x1="263" x2="3036" y1="696" y2="696"/>
  <line id="Capline-S" style="fill:none;stroke:#27AAE1;opacity:1;stroke-width:0.5;" x1="263" x2="3036" y1="625.541" y2="625.541"/>
  <g id="H-reference" style="fill:#27AAE1;stroke:none;" transform="matrix(1 0 0 1 339 1126)">
   <path d="M0.993654 0L3.63775 0L29.3281-67.1323L30.0303-67.1323L30.0303-70.459L28.1226-70.459ZM11.6885-24.4799L46.9815-24.4799L46.2315-26.7285L12.4385-26.7285ZM55.1196 0L57.7637 0L30.6382-70.459L29.4326-70.459L29.4326-67.1323Z"/>
  </g>
  <line id="Baseline-M" style="fill:none;stroke:#27AAE1;opacity:1;stroke-width:0.5;" x1="263" x2="3036" y1="1126" y2="1126"/>
  <line id="Capline-M" style="fill:none;stroke:#27AAE1;opacity:1;stroke-width:0.5;" x1="263" x2="3036" y1="1055.54" y2="1055.54"/>
  <g id="H-reference" style="fill:#27AAE1;stroke:none;" transform="matrix(1 0 0 1 339 1556)">
   <path d="M0.993654 0L3.63775 0L29.3281-67.1323L30.0303-67.1323L30.0303-70.459L28.1226-70.459ZM11.6885-24.4799L46.9815-24.4799L46.2315-26.7285L12.4385-26.7285ZM55.1196 0L57.7637 0L30.6382-70.459L29.4326-70.459L29.4326-67.1323Z"/>
  </g>
  <line id="Baseline-L" style="fill:none;stroke:#27AAE1;opacity:1;stroke-width:0.5;" x1="263" x2="3036" y1="1556" y2="1556"/>
  <line id="Capline-L" style="fill:none;stroke:#27AAE1;opacity:1;stroke-width:0.5;" x1="263" x2="3036" y1="1485.54" y2="1485.54"/>
  <line id="right-margin-Black-S" style="fill:none;stroke:#00AEEF;stroke-width:0.5;opacity:1.0;" x1="2982.23" x2="2982.23" y1="600.785" y2="720.121"/>
  <line id="left-margin-Black-S" style="fill:none;stroke:#00AEEF;stroke-width:0.5;opacity:1.0;" x1="2884.57" x2="2884.57" y1="600.785" y2="720.121"/>
  <line id="right-margin-Regular-S" style="fill:none;stroke:#00AEEF;stroke-width:0.5;opacity:1.0;" x1="1496.11" x2="1496.11" y1="600.785" y2="720.121"/>
  <line id="left-margin-Regular-S" style="fill:none;stroke:#00AEEF;stroke-width:0.5;opacity:1.0;" x1="1403.58" x2="1403.58" y1="600.785" y2="720.121"/>
  <line id="right-margin-Ultralight-S" style="fill:none;stroke:#00AEEF;stroke-width:0.5;opacity:1.0;" x1="603.773" x2="603.773" y1="600.785" y2="720.121"/>
  <line id="left-margin-Ultralight-S" style="fill:none;stroke:#00AEEF;stroke-width:0.5;opacity:1.0;" x1="515.649" x2="515.649" y1="600.785" y2="720.121"/>
 </g>
 <g id="Symbols">
  <g id="Black-S" transform="matrix(1 0 0 1 2884.57 696)">
   <path class="monochrome-0 multicolor-0:systemGrayColor hierarchical-0:tertiary SFSymbolsPreviewWireframe" d="M48.8281 6.78711C72.0215 6.78711 90.8203-12.0117 90.8203-35.2051C90.8203-58.3984 72.0215-77.1973 48.8281-77.1973C25.6348-77.1973 6.83594-58.3984 6.83594-35.2051C6.83594-12.0117 25.6348 6.78711 48.8281 6.78711Z"/>
   <path class="monochrome-1 multicolor-1:white hierarchical-1:primary SFSymbolsPreviewWireframe" d="M48.7793-9.81445C47.998-9.81445 47.5098-10.1562 47.2656-11.5234L47.0215-13.2324C46.9238-13.7695 46.4844-14.0625 46.0938-14.1602C45.3613-14.209 45.0195-14.0137 44.8242-13.5742L44.0918-11.9141C43.6035-10.5957 42.9199-10.498 42.2852-10.6445C41.5527-10.8887 40.918-11.3281 41.1133-12.6953L41.3574-14.4531C41.4062-15.0391 41.1133-15.3809 40.6738-15.625C40.1367-15.7715 39.6973-15.7227 39.4043-15.2832L38.2812-13.8672C37.4512-12.793 36.8164-12.8418 36.1328-13.2324C35.498-13.623 35.1074-14.1602 35.6445-15.3809L36.3281-17.0898C36.4746-17.5781 36.377-17.9688 35.9375-18.3594C35.3516-18.75 35.0098-18.75 34.5703-18.4082L33.1543-17.334C32.0312-16.5039 31.25-16.6992 30.7617-17.2363C30.3223-17.7734 30.127-18.4082 30.9082-19.5312L32.0312-20.9473C32.3242-21.3867 32.3242-21.7773 31.9824-22.2168C31.6895-22.7051 31.2012-22.8516 30.6641-22.6074L29.0039-21.9727C27.7344-21.4844 27.1973-21.8262 26.8066-22.4121C26.3672-23.0957 26.3672-23.7793 27.4414-24.6582L28.8574-25.7812C29.3457-26.1719 29.3945-26.5625 29.1992-27.0996C28.9551-27.6855 28.6133-27.8809 28.0762-27.7832L26.2695-27.5879C25-27.4414 24.4629-27.8809 24.2676-28.6133C23.9746-29.3457 24.2188-30.0781 25.4395-30.6152L27.1484-31.25C27.6367-31.4941 27.8809-31.6895 27.7344-32.4219C27.6367-32.959 27.3926-33.3496 26.8066-33.4473L25.0977-33.6914C23.6328-33.8379 23.3887-34.4727 23.3887-35.2051C23.3887-35.9375 23.6328-36.5723 25.0977-36.7188L26.8066-36.9141C27.3926-37.0117 27.6367-37.4512 27.7344-37.9395C27.7832-38.4766 27.6367-38.916 27.1484-39.1602L25.4883-39.8926C24.2188-40.3809 24.0723-41.1133 24.2676-41.748C24.4629-42.4316 24.9512-42.9688 26.2695-42.8223L28.0273-42.5781C28.6133-42.5293 28.8574-42.6758 29.1992-43.3105C29.3945-43.8477 29.3457-44.2383 28.8574-44.6289L27.4414-45.752C26.416-46.582 26.3672-47.2168 26.8066-47.9492C27.1484-48.584 27.7832-48.877 29.0039-48.3398L30.6641-47.8027C31.1523-47.6074 31.5918-47.7051 31.9336-48.1445C32.2266-48.584 32.373-49.1211 32.0312-49.5117L30.9082-50.9277C30.2246-51.8555 30.2246-52.6367 30.7617-53.1738C31.25-53.7109 31.9824-53.9062 33.2031-53.0762L34.5703-52.002C35.0586-51.6113 35.5469-51.7578 35.9375-52.0996C36.377-52.4414 36.5234-52.832 36.3281-53.3691L35.6445-54.9805C35.1562-56.25 35.498-56.7383 36.084-57.1777C36.7676-57.5684 37.4023-57.6172 38.2812-56.4941L39.4043-55.127C39.6973-54.6875 40.1367-54.6387 40.7227-54.7852C41.1621-55.0293 41.5527-55.3711 41.4062-56.0059L41.1621-57.7637C41.0156-59.082 41.6016-59.5215 42.2363-59.7168C42.9199-59.9121 43.6035-59.7656 44.0918-58.4961L44.8242-56.8359C45.0684-56.3965 45.5078-56.25 45.9961-56.2988C46.4844-56.3477 46.9727-56.5918 47.0215-57.1289L47.2656-58.9844C47.4609-60.2539 47.998-60.5957 48.8281-60.5957C49.6094-60.5957 50.0977-60.2051 50.293-58.9355L50.5371-57.1289C50.5859-56.5918 51.0254-56.3477 51.5625-56.25C52.2461-56.1035 52.6367-56.3965 52.832-56.8359L53.5156-58.4961C54.0039-59.7168 54.6875-59.9121 55.3711-59.7168C56.1523-59.4727 56.6406-59.1309 56.4941-57.7637L56.25-55.957C56.2012-55.3711 56.4453-55.0293 56.8848-54.834C57.4707-54.6387 57.9102-54.6875 58.2031-55.127L59.3262-56.4941C60.1074-57.4707 60.791-57.5684 61.5234-57.1777C62.207-56.7871 62.5-56.2988 62.0117-54.9805L61.2793-53.3691C61.084-52.832 61.2305-52.4414 61.6699-52.0996C62.1582-51.6602 62.5977-51.6113 63.1348-52.002L64.4531-52.9785C65.5762-53.9062 66.3086-53.6621 66.7969-53.1738C67.2363-52.6855 67.4805-52.002 66.6504-50.8789L65.5762-49.4629C65.332-49.1211 65.2344-48.584 65.625-48.1445C65.9668-47.6562 66.3574-47.5586 66.8945-47.7051L68.5547-48.3887C69.873-48.877 70.459-48.584 70.8496-47.9492C71.2402-47.3145 71.2891-46.6309 70.166-45.752L68.7012-44.6289C68.2617-44.2871 68.1641-43.8965 68.3594-43.2617C68.6035-42.8223 68.9941-42.5293 69.5801-42.5781L71.3379-42.7734C72.7051-42.9688 73.1445-42.4316 73.3887-41.748C73.6328-41.0645 73.3887-40.3809 72.168-39.7949L70.459-39.1113C69.9707-38.916 69.8242-38.5742 69.873-37.9883C69.9219-37.4512 70.2148-37.0117 70.8008-36.9141L72.5586-36.7188C73.9746-36.5723 74.2188-35.9375 74.2188-35.2051C74.2188-34.4727 73.9746-33.8379 72.5586-33.6914L70.8008-33.4473C70.2637-33.3496 69.9219-32.959 69.873-32.4707C69.8242-31.6895 69.9707-31.4453 70.459-31.25L72.1191-30.5176C73.3887-30.0293 73.584-29.3457 73.3887-28.6621C73.1445-27.8809 72.7051-27.4414 71.3379-27.5879L69.5801-27.7832C68.9453-27.832 68.6035-27.6367 68.4082-27.1484C68.2129-26.5625 68.2617-26.1719 68.7012-25.7812L70.166-24.6582C71.2402-23.7793 71.2402-23.0957 70.8496-22.4609C70.459-21.8262 69.873-21.4844 68.5547-22.0215L66.8945-22.6074C66.3574-22.8516 65.9668-22.7051 65.6738-22.2656C65.332-21.7773 65.2344-21.2891 65.5762-20.8984L66.6504-19.4824C67.5293-18.3594 67.1387-17.7246 66.7969-17.2363C66.2598-16.6504 65.625-16.4551 64.4043-17.334L63.0371-18.4082C62.5488-18.75 62.2559-18.6523 61.7188-18.3105C61.2305-18.0176 61.084-17.5781 61.2793-17.0898L62.0117-15.3809C62.5-14.1602 62.207-13.623 61.5234-13.2324C60.8887-12.8418 60.2051-12.793 59.3262-13.8672L58.2031-15.2832C57.9102-15.7227 57.5195-15.8203 56.9824-15.625C56.4453-15.332 56.2012-14.9902 56.25-14.4531L56.4453-12.6953C56.6406-11.3281 56.0059-10.8398 55.3711-10.6445C54.7852-10.4004 54.0039-10.5957 53.5156-11.9141L52.7832-13.5742C52.5391-13.9648 52.1973-14.1602 51.6602-14.0625C51.1719-13.9648 50.6348-13.8184 50.5371-13.2324L50.293-11.4746C50.0977-10.1562 49.6094-9.81445 48.7793-9.81445ZM37.2559-24.1699C38.1348-23.2422 39.6484-23.5352 40.332-24.707L45.2637-33.4473C45.9961-34.4727 46.0938-35.6934 45.2637-36.9629L40.3809-45.7031C39.6484-46.9727 38.2812-47.2168 37.2559-46.2402C34.5215-43.3105 32.8613-39.4531 32.8613-35.2051C32.8613-30.957 34.5215-27.0996 37.2559-24.1699ZM48.8281-19.1895C56.1523-19.1895 62.2559-23.9258 64.209-30.6641C64.5508-31.8359 63.7695-33.0078 62.207-33.0078L52.2949-33.0078C50.7324-33.0078 49.7559-32.4219 49.0234-31.25L44.043-22.5098C43.3594-21.2402 43.8477-19.9219 45.1172-19.6289C46.3379-19.2871 47.5586-19.1895 48.8281-19.1895ZM48.6816-33.6426C49.5605-33.6426 50.1465-34.2773 50.1465-35.1562C50.1465-35.9863 49.5605-36.6211 48.6816-36.6211C47.8027-36.6211 47.168-35.9863 47.168-35.1562C47.168-34.2773 47.8027-33.6426 48.6816-33.6426ZM52.2949-37.4023L62.207-37.4023C63.8672-37.4023 64.5508-38.4766 64.209-39.7461C62.2559-46.4844 56.1523-51.1719 48.8281-51.1719C47.5586-51.1719 46.3867-51.123 45.1172-50.7812C43.8477-50.4395 43.3594-49.1211 44.2383-47.5098L49.0234-39.1602C49.7559-37.9395 50.8789-37.4023 52.2949-37.4023Z"/>
  </g>
  <g id="Regular-S" transform="matrix(1 0 0 1 1403.58 696)">
   <path class="monochrome-0 multicolor-0:systemGrayColor hierarchical-0:tertiary SFSymbolsPreviewWireframe" d="M46.2402 4.19922C68.0176 4.19922 85.6934-13.4766 85.6934-35.2051C85.6934-56.9336 68.0176-74.6094 46.2402-74.6094C24.5117-74.6094 6.83594-56.9336 6.83594-35.2051C6.83594-13.4766 24.5117 4.19922 46.2402 4.19922Z"/>
   <path class="monochrome-1 multicolor-1:white hierarchical-1:primary SFSymbolsPreviewWireframe" d="M46.2402-9.08203C45.5078-9.08203 44.9707-9.57031 44.7754-10.8398L44.5312-12.5488C44.4336-13.2324 44.0918-13.5742 43.3105-13.623C42.6758-13.6719 42.334-13.4277 42.0898-12.8418L41.3574-11.2305C40.8691-9.96094 40.0879-9.86328 39.502-10.0098C38.8672-10.1562 38.3789-10.791 38.5254-11.9629L38.7695-13.7695C38.8672-14.502 38.5742-14.7949 37.8906-15.0391C37.3047-15.332 36.8652-15.2344 36.4258-14.7461L35.2539-13.2812C34.4238-12.2559 33.7891-12.207 33.2031-12.5977C32.6172-12.8906 32.2266-13.4766 32.7637-14.7461L33.4473-16.4551C33.6914-17.1387 33.5449-17.5781 33.0078-17.9199C32.4219-18.3594 31.9336-18.5059 31.3965-18.0176L29.9805-16.9434C28.9551-16.1621 28.2715-16.2598 27.7832-16.6992C27.2949-17.2363 27.1973-17.9199 27.9785-18.9453L29.0527-20.3613C29.4922-20.9473 29.3945-21.4355 29.0039-21.9727C28.5645-22.5098 28.125-22.7051 27.4902-22.4121L25.8301-21.6797C24.5605-21.2402 23.9746-21.4844 23.6328-22.168C23.291-22.7539 23.3398-23.4375 24.3652-24.2188L25.7812-25.3418C26.3672-25.8301 26.416-26.3184 26.1719-26.8555C25.8789-27.4902 25.5371-27.832 24.8047-27.7344L23.0469-27.4414C21.7773-27.3438 21.1914-27.832 21.0449-28.4668C20.8496-29.0039 21.0449-29.7852 22.2168-30.2734L23.9258-31.0059C24.5605-31.25 24.7559-31.7383 24.707-32.373C24.6582-33.0078 24.3164-33.4473 23.584-33.5449L21.8262-33.7891C20.6055-33.8867 20.166-34.5215 20.166-35.2051C20.166-35.8887 20.6055-36.5234 21.8262-36.6211L23.584-36.8652C24.3164-36.9629 24.5605-37.3535 24.6582-37.9395C24.7559-38.7207 24.5605-39.1602 23.9258-39.4043L22.2656-40.1367C21.0449-40.625 20.8984-41.4062 21.0449-41.9434C21.1914-42.627 21.7773-43.0664 22.998-42.9688L24.8047-42.7246C25.4395-42.6758 25.7812-42.8711 26.123-43.5059C26.416-44.0918 26.3184-44.6289 25.7812-45.0684L24.3652-46.1914C23.5352-46.8262 23.2422-47.5586 23.6328-48.291C24.0723-48.9746 24.7559-49.1211 25.8301-48.7305L27.4902-48.0469C28.0273-47.8027 28.418-47.8516 28.9551-48.4375C29.4434-49.0234 29.4922-49.4629 29.0527-50.0488L27.9785-51.5137C27.2949-52.3926 27.2461-53.0762 27.7832-53.7109C28.3203-54.248 29.0039-54.1992 29.9805-53.5156L31.4453-52.4414C31.9824-51.9531 32.5195-52.0508 33.0078-52.4902C33.5449-52.8809 33.6914-53.2715 33.4473-53.9551L32.7637-55.6641C32.2266-56.9336 32.5684-57.4707 33.252-57.8125C33.7891-58.1543 34.5215-58.0566 35.2539-57.1289L36.4258-55.6641C36.8652-55.0781 37.207-55.0293 37.8906-55.3711C38.5742-55.6152 38.8672-55.9082 38.7695-56.6406L38.5742-58.4473C38.3789-59.5215 38.7695-60.2051 39.502-60.4004C40.2344-60.5957 40.918-60.3027 41.4062-59.1797L42.1387-57.5684C42.3828-56.9824 42.7246-56.7383 43.4082-56.8359C44.043-56.8848 44.4336-57.1777 44.5312-57.8613L44.7754-59.6191C44.9707-60.8398 45.5078-61.3281 46.2402-61.3281C46.9238-61.3281 47.5586-60.8398 47.7051-59.5703L47.998-57.8613C48.0957-57.1289 48.3398-56.8848 48.9746-56.7871C49.8047-56.6895 50.1953-56.9336 50.4395-57.5684L51.1719-59.1797C51.6113-60.3027 52.2949-60.5469 52.9785-60.4004C53.7109-60.2539 54.1504-59.6191 54.0527-58.4473L53.7598-56.6406C53.6621-55.9082 53.9551-55.6152 54.541-55.3711C55.2246-55.0781 55.6641-55.0781 56.1035-55.6641L57.2754-57.1289C57.959-58.0078 58.6426-58.252 59.3262-57.8125C59.8633-57.5195 60.2539-56.9336 59.7168-55.6641L59.082-53.9551C58.8379-53.2227 58.9355-52.9297 59.4238-52.4902C60.0098-52.002 60.498-51.9043 61.084-52.3926L62.5-53.4668C63.4766-54.248 64.209-54.1016 64.6973-53.7109C65.1367-53.2227 65.332-52.4902 64.502-51.4648L63.4277-50.0488C62.9883-49.4629 62.9883-49.0234 63.4766-48.4375C63.916-47.9004 64.4043-47.7051 65.0391-47.998L66.6992-48.7305C67.8711-49.1699 68.4082-48.877 68.8965-48.2422C69.1895-47.6562 69.1895-46.9727 68.1152-46.1914L66.6992-45.0684C66.1133-44.5801 66.1133-44.1895 66.3574-43.5059C66.5527-42.9199 66.9922-42.5781 67.7246-42.6758L69.4824-42.9688C70.752-43.1152 71.2891-42.5781 71.4844-41.9434C71.6309-41.4062 71.4844-40.625 70.3125-40.1367L68.5547-39.4043C67.9688-39.1602 67.7246-38.7207 67.8223-38.0371C67.9199-37.4023 68.1641-36.9629 68.9453-36.8652L70.7031-36.6211C71.9238-36.5234 72.3633-35.8887 72.3633-35.2051C72.3633-34.5215 71.9238-33.8867 70.7031-33.7891L68.9453-33.5449C68.1641-33.4473 67.8711-33.0078 67.8223-32.4219C67.7246-31.5918 68.0176-31.2012 68.5547-31.0059L70.2637-30.2734C71.4844-29.7852 71.582-29.0039 71.4844-28.4668C71.3379-27.7832 70.752-27.3438 69.5312-27.4414L67.7246-27.6855C66.9434-27.7832 66.6016-27.4902 66.4062-26.9043C66.1621-26.3184 66.1621-25.8301 66.6992-25.3418L68.1152-24.2188C69.1895-23.4375 69.1895-22.7539 68.8477-22.2168C68.5059-21.4844 67.9199-21.2402 66.6992-21.6797L65.0391-22.3633C64.3066-22.7051 63.916-22.5098 63.4766-21.9727C63.0371-21.4355 63.0371-20.9473 63.4277-20.3613L64.502-18.8965C65.332-17.9199 65.1855-17.2363 64.6973-16.6992C64.1602-16.2109 63.4766-16.1621 62.5-16.8945L61.0352-17.9688C60.498-18.457 60.0586-18.3594 59.4727-17.9199C58.9844-17.5781 58.8379-17.1875 59.082-16.4551L59.7168-14.7461C60.2539-13.4766 59.8633-12.8906 59.3262-12.5977C58.7891-12.2559 58.0566-12.2559 57.2754-13.2812L56.1035-14.7461C55.6641-15.332 55.1758-15.332 54.541-15.0391C53.9062-14.7949 53.6621-14.502 53.7598-13.7695L53.9551-11.9629C54.1504-10.791 53.6133-10.1562 52.9785-10.0098C52.3926-9.86328 51.6602-10.0098 51.123-11.2305L50.3906-12.8418C50.1465-13.4277 49.8047-13.6719 49.0723-13.5742C48.4375-13.4766 48.0469-13.2324 47.9492-12.5488L47.7051-10.791C47.5586-9.57031 46.9238-9.08203 46.2402-9.08203ZM33.4473-23.0469C34.6191-21.8262 35.7422-22.1191 36.6211-23.6328L42.2852-33.3008C43.0176-34.7656 43.0664-35.6445 42.2852-37.1094L36.6211-46.7773C35.7422-48.291 34.6191-48.584 33.4473-47.3633C30.3711-44.1895 28.5645-39.9902 28.5645-35.2051C28.5645-30.4199 30.3711-26.2695 33.4473-23.0469ZM46.1426-17.627C54.1016-17.627 60.791-22.9492 62.9395-30.3711C63.3789-31.8848 62.5977-32.8125 60.8398-32.8125L49.6582-32.8125C48.1445-32.8125 47.2168-32.2754 46.4355-30.957L40.8203-21.2402C39.9414-19.7266 40.2832-18.6035 41.9434-18.2129C43.3594-17.8223 44.6777-17.627 46.1426-17.627ZM45.9961-33.5449C46.9238-33.5449 47.6074-34.2773 47.6074-35.1562C47.6074-36.084 46.9238-36.7676 45.9961-36.7676C45.1172-36.7676 44.3848-36.084 44.3848-35.1562C44.3848-34.2773 45.1172-33.5449 45.9961-33.5449ZM49.6582-37.5977L60.8398-37.5977C62.5977-37.5977 63.3789-38.5254 62.9395-40.0391C60.791-47.5098 54.1016-52.7832 46.1426-52.7832C44.6777-52.7832 43.3594-52.5879 41.9434-52.1973C40.2832-51.8066 39.9414-50.6836 40.8203-49.1699L46.4355-39.4531C47.2168-38.1348 48.1445-37.5977 49.6582-37.5977Z"/>
  </g>
  <g id="Ultralight-S" transform="matrix(1 0 0 1 515.649 696)">
   <path class="monochrome-0 multicolor-0:systemGrayColor hierarchical-0:tertiary SFSymbolsPreviewWireframe" d="M44.0606 2.01955C64.521 2.01955 81.2886-14.748 81.2886-35.2051C81.2886-55.6621 64.521-72.4297 44.0606-72.4297C23.6035-72.4297 6.83594-55.6621 6.83594-35.2051C6.83594-14.748 23.6035 2.01955 44.0606 2.01955Z"/>
   <path class="monochrome-1 multicolor-1:white hierarchical-1:primary SFSymbolsPreviewWireframe" d="M44.0606-9.30908C43.419-9.30908 43.0635-9.88818 43.0044-10.522L42.8511-12.4126C42.7534-13.3687 42.4116-13.8013 41.2217-13.8955C40.1328-14.0806 39.564-13.6094 39.3198-12.8418L38.6328-11.0488C38.3716-10.415 37.999-10.0449 37.3677-10.1914C36.7329-10.3833 36.5625-10.9727 36.6636-11.645L36.9985-13.4517C37.187-14.4111 36.8486-14.9312 35.8018-15.3569C34.8526-15.7861 34.2315-15.7339 33.6558-14.8823L32.5747-13.3267C32.1987-12.8008 31.7002-12.4341 31.0689-12.7793C30.5283-13.1177 30.5464-13.7036 30.8111-14.3374L31.5855-16.0464C31.9658-16.8662 31.8193-17.5327 30.8736-18.1924C30.0152-18.7681 29.4361-18.9145 28.6719-18.2446L27.2105-17.0342C26.73-16.6616 26.0464-16.4414 25.6489-16.8809C25.1607-17.3271 25.3809-17.9653 25.7988-18.4458L26.9639-19.9072C27.6304-20.6748 27.5327-21.3901 26.9151-22.1543C26.2486-22.9639 25.7183-23.1592 24.8111-22.7754L23.1055-21.9521C22.4717-21.6943 21.8403-21.7114 21.544-22.2588C21.2022-22.7993 21.4326-23.3467 22.0493-23.7192L23.6016-24.8423C24.3237-25.3306 24.4634-26.0459 24.083-26.9463C23.6992-27.9443 23.085-28.2861 22.2617-28.1431L20.3677-27.8047C19.7339-27.7524 19.1026-27.8774 18.9561-28.5122C18.7608-29.1401 19.2739-29.6035 19.8555-29.8193L21.6099-30.4609C22.4717-30.7505 22.8486-31.3296 22.6636-32.373C22.5694-33.4165 22.2276-33.9468 21.1773-34.0444L19.2832-34.1978C18.6074-34.25 18.0772-34.5669 18.0772-35.2051C18.0772-35.8433 18.6074-36.1602 19.2832-36.2124L21.1773-36.3657C22.2276-36.4634 22.5625-36.9902 22.6602-38.0303C22.8486-39.084 22.4717-39.6597 21.6099-39.9492L19.8589-40.5908C19.2739-40.8066 18.7642-41.27 18.9561-41.8979C19.1026-42.5361 19.7339-42.6577 20.3643-42.6055L22.2617-42.2705C23.0781-42.1309 23.6924-42.4624 24.0796-43.4604C24.4634-44.3643 24.3203-45.083 23.6016-45.5679L22.0493-46.6909C21.4463-47.0532 21.1987-47.604 21.544-48.1548C21.8472-48.7022 22.4854-48.7124 23.1055-48.458L24.8111-47.6382C25.7114-47.2578 26.2383-47.4429 26.9116-48.2559C27.5361-49.0234 27.6304-49.7353 26.9639-50.5029L25.7988-51.9678C25.3877-52.438 25.1572-53.0762 25.6489-53.5293C26.0498-53.9756 26.7334-53.7451 27.2105-53.3794L28.6753-52.1689C29.4395-51.499 30.022-51.6421 30.8736-52.2178C31.8193-52.8809 31.9658-53.5439 31.5855-54.3638L30.8111-56.0728C30.5464-56.7065 30.5249-57.2891 31.0723-57.6309C31.7002-57.9727 32.2056-57.6025 32.5747-57.0835L33.6558-55.5278C34.2315-54.6694 34.8457-54.6206 35.8018-55.0532C36.8486-55.479 37.187-55.999 36.9985-56.9585L36.667-58.7651C36.5625-59.4307 36.7261-60.0234 37.3677-60.2188C38.0093-60.3687 38.375-59.9849 38.6363-59.3613L39.3233-57.5684C39.5674-56.8008 40.1363-56.3296 41.2285-56.5181C42.4082-56.6123 42.7534-57.0415 42.8511-57.9976L43.0044-59.8916C43.0635-60.522 43.419-61.1011 44.0606-61.1011C44.6533-61.1011 45.0156-60.522 45.0713-59.8882L45.228-57.9976C45.3257-57.0381 45.6607-56.6123 46.8403-56.5147C47.9429-56.3262 48.5151-56.7974 48.7593-57.5684L49.4463-59.3613C49.7041-59.9849 50.0698-60.3652 50.708-60.2188C51.3496-60.0269 51.5166-59.4375 51.419-58.7651L51.0806-56.9585C50.8921-55.999 51.2305-55.479 52.2705-55.0532C53.2266-54.624 53.8477-54.6694 54.4234-55.5278L55.5044-57.0835C55.8701-57.5991 56.3721-57.9795 57.0103-57.6309C57.5474-57.2925 57.6201-56.752 57.3101-56.0728L56.4937-54.3638C56.1133-53.5405 56.2564-52.8843 57.1987-52.2178C58.0571-51.6387 58.6362-51.4956 59.4038-52.1655L60.9107-53.376C61.3423-53.7485 62.0293-53.9653 62.4268-53.5293C62.9116-53.0864 62.6983-52.4448 62.2769-51.9644L61.1118-50.5029C60.4453-49.7353 60.5362-49.0234 61.1607-48.2559C61.8272-47.4463 62.4063-47.251 63.2681-47.6348L64.9736-48.458C65.646-48.7158 66.2285-48.6953 66.5352-48.1514C66.8736-47.6108 66.6011-47.1089 66.0264-46.6909L64.4741-45.5679C63.752-45.0796 63.6157-44.3711 63.9961-43.4604C64.3731-42.4658 64.9942-42.124 65.8174-42.2671L67.7114-42.6055C68.3452-42.7065 68.9732-42.5327 69.1231-41.8979C69.315-41.27 68.9414-40.852 68.2691-40.5908L66.4658-39.9492C65.6074-39.6597 65.2271-39.084 65.4155-38.0371C65.5586-36.9937 65.8936-36.4634 66.9019-36.3657L68.7959-36.2124C69.4717-36.1602 70.002-35.8433 70.002-35.2051C70.002-34.5669 69.4717-34.25 68.7959-34.1978L66.9019-34.0444C65.8936-33.9468 65.5552-33.4165 65.4155-32.3765C65.2271-31.3193 65.6109-30.7471 66.4658-30.4609L68.2656-29.8193C68.9414-29.5581 69.3115-29.1401 69.1231-28.5122C68.9766-27.874 68.3452-27.7524 67.7149-27.8047L65.8174-28.1396C64.9907-28.2827 64.3765-27.9443 63.9995-26.9497C63.6192-26.0459 63.7554-25.3306 64.4741-24.8423L66.0264-23.7192C66.6465-23.3467 66.8736-22.7993 66.5318-22.2622C66.2354-21.7114 65.6494-21.6943 64.9736-21.9521L63.2681-22.772C62.3994-23.1592 61.8272-22.9639 61.1607-22.1543C60.5396-21.3901 60.4488-20.6748 61.1118-19.9072L62.2769-18.4424C62.6983-17.9653 62.9151-17.3271 62.4268-16.8809C62.0259-16.438 61.3423-16.6616 60.9107-17.0308L59.4004-18.2412C58.6362-18.9111 58.0606-18.7681 57.2022-18.1924C56.2598-17.5327 56.1133-16.8696 56.4937-16.0464L57.3101-14.3374C57.5293-13.7036 57.5474-13.1177 57.0103-12.7793C56.3823-12.4375 55.877-12.8008 55.5044-13.3267L54.4234-14.8823C53.8477-15.7407 53.2232-15.7861 52.2705-15.3569C51.2271-14.9312 50.8921-14.4111 51.0806-13.4517L51.4121-11.645C51.5166-10.9727 51.3428-10.3833 50.708-10.1914C50.0767-10.0449 49.7075-10.4185 49.4429-11.0488L48.7559-12.8418C48.5117-13.6094 47.9429-14.0806 46.8472-13.8921C45.6675-13.7944 45.3223-13.3687 45.2246-12.4126L45.0713-10.5186C45.0156-9.88818 44.6533-9.30908 44.0606-9.30908ZM32.0396-19.7774C32.939-19.1016 33.5171-19.0313 33.9873-19.8184L42.1035-33.8457C42.6089-34.6748 42.6577-35.5537 42.1943-36.3828L33.9419-50.6826C33.5171-51.3789 32.939-51.4448 32.0396-50.7236C27.4649-47.0957 24.4776-41.5342 24.4776-35.2505C24.4776-28.9214 27.4195-23.4087 32.0396-19.7774ZM44.0537-15.6743C53.9199-15.6743 62.0625-22.9492 63.3481-32.5508C63.5605-33.7466 63.415-34.1748 62.4292-34.1748L46.2525-34.1748C45.0567-34.1748 44.4468-33.8647 43.8926-32.8642L35.7798-18.8335C35.355-18.0918 35.4698-17.6499 36.6758-17.0776C39-16.1421 41.4082-15.6743 44.0537-15.6743ZM43.9072-34.4985C44.3355-34.4985 44.6558-34.7769 44.6558-35.2471C44.6558-35.6753 44.3355-35.9956 43.9072-35.9956C43.437-35.9956 43.1587-35.6753 43.1587-35.2471C43.1587-34.8223 43.437-34.4985 43.9072-34.4985ZM46.2525-36.2354L62.4746-36.2354C63.415-36.2354 63.5605-36.6182 63.3481-37.8594C62.0625-47.5552 53.9653-54.7812 44.0537-54.7812C41.4082-54.7812 38.9546-54.2681 36.6304-53.3325C35.5606-52.9419 35.3096-52.5 35.7798-51.7129L43.9834-37.4097C44.4468-36.6362 45.1475-36.2354 46.2525-36.2354Z"/>
  </g>
 </g>
</svg>
