<svg xmlns="http://www.w3.org/2000/svg" viewBox="9.77 -70.95 71.48 71.44">
  <path d="M30.7129 0.488281L60.3027 0.488281C66.9922 0.488281 72.2656-1.51367 75.7324-4.98047C79.3457-8.49609 81.25-13.7695 81.25-20.459L81.25-50C81.25-56.6895 79.3457-61.9629 75.7324-65.4785C72.2168-68.9941 66.9922-70.9473 60.3027-70.9473L30.7129-70.9473C24.0234-70.9473 18.7012-68.9453 15.2344-65.4785C11.6699-61.9629 9.76562-56.6895 9.76562-50L9.76562-20.459C9.76562-13.7695 11.6699-8.49609 15.2344-4.98047C18.7012-1.51367 24.0234 0.488281 30.7129 0.488281Z" fill="#0A84FF"/>
  <path d="M29.0039-27.7832L29.0039-49.1211C29.0039-50.5859 30.2246-51.7578 31.7383-51.7578C33.1055-51.7578 34.3262-50.5859 34.3262-49.1211L34.3262-35.6445C34.8633-35.9375 35.4004-36.2793 36.0352-36.5234L36.0352-56.25C36.0352-57.7148 37.2559-58.8867 38.6719-58.8867C40.0879-58.8867 41.3086-57.7148 41.3086-56.25L41.3086-38.2324C41.8945-38.3301 42.4805-38.3789 43.0664-38.4766L43.0664-58.0078C43.0664-59.4238 44.1895-60.6445 45.7031-60.6445C47.168-60.6445 48.291-59.4238 48.291-58.0078L48.291-38.2324C48.9258-38.0859 49.5117-37.8906 50.0488-37.793L50.0488-54.9805C50.0488-56.3965 51.2207-57.6172 52.6855-57.6172C54.0527-57.6172 55.2734-56.3965 55.2734-54.9805L55.2734-30.8105C55.2734-30.2734 55.4688-29.9805 55.8594-29.9805C56.1523-29.9805 56.3965-30.2246 56.6406-30.8594L59.9121-37.3535C61.084-39.7461 61.9629-40.7715 63.623-40.7715C65.0391-40.7715 66.0156-39.8926 66.0156-38.5742C66.0156-37.3535 64.9902-34.5215 64.2578-32.2754C62.7441-27.3926 61.3281-23.3398 59.4238-20.0195C56.2012-14.209 51.6602-11.7188 44.8242-11.7188C35.4004-11.7188 29.0039-18.0176 29.0039-27.7832Z" fill="#FFFFFF"/>
</svg>
