<?xml version="1.0" encoding="UTF-8"?>
<svg xmlns="http://www.w3.org/2000/svg" xmlns:xlink="http://www.w3.org/1999/xlink" viewBox="0 0 512 512">
  <defs>
    <style>
      .cls-1 {
        fill: url(#radial-gradient-3);
      }

      .cls-1, .cls-2, .cls-3 {
        mix-blend-mode: multiply;
      }

      .cls-2 {
        fill: url(#radial-gradient);
      }

      .cls-4 {
        fill: #fff;
      }

      .cls-5 {
        isolation: isolate;
      }

      .cls-3 {
        fill: url(#radial-gradient-2);
      }
    </style>
    <radialGradient id="radial-gradient" cx="280.85" cy="242.22" fx="280.85" fy="242.22" r="183.65" gradientUnits="userSpaceOnUse">
      <stop offset=".15" stop-color="#000"/>
      <stop offset="1" stop-color="#000" stop-opacity="0"/>
    </radialGradient>
    <radialGradient id="radial-gradient-2" cx="196.04" cy="266.01" fx="196.04" fy="266.01" r="152.54" xlink:href="#radial-gradient"/>
    <radialGradient id="radial-gradient-3" cx="235.09" cy="280.65" fx="235.09" fy="280.65" r="152.54" xlink:href="#radial-gradient"/>
  </defs>
  <g class="cls-5">
    <g id="Layer_1" data-name="Layer 1">
      <path class="cls-4" d="M512,325.5c0,7.12,0,14.24-.04,21.36-.03,6-.1,12-.27,17.99-.35,13.07-1.12,26.25-3.45,39.17-2.36,13.11-6.2,25.31-12.26,37.22-5.96,11.71-13.74,22.42-23.03,31.71-9.29,9.29-20,17.07-31.71,23.03-11.91,6.06-24.11,9.91-37.22,12.26-12.92,2.32-26.1,3.09-39.17,3.45-6,.16-11.99.23-17.99.27-7.12.04-14.24.04-21.36.04h-139c-7.12,0-14.24,0-21.36-.04-6-.03-12-.1-17.99-.27-13.07-.35-26.25-1.12-39.17-3.45-13.11-2.36-25.31-6.2-37.22-12.26-11.71-5.96-22.42-13.74-31.71-23.03-9.29-9.29-17.07-20-23.03-31.71-6.06-11.91-9.91-24.11-12.26-37.22-2.32-12.92-3.09-26.1-3.45-39.17-.16-6-.23-11.99-.27-17.99C0,339.74,0,332.62,0,325.5v-139C0,179.38,0,172.26.04,165.14c.03-6,.1-12,.27-17.99.35-13.07,1.12-26.25,3.45-39.17,2.36-13.11,6.2-25.31,12.26-37.22,5.96-11.71,13.74-22.42,23.03-31.71,9.29-9.29,20-17.07,31.71-23.03,11.91-6.06,24.11-9.91,37.22-12.26,12.92-2.32,26.1-3.09,39.17-3.45,6-.16,11.99-.23,17.99-.27C172.26,0,179.38,0,186.5,0h139c7.12,0,14.24,0,21.36.04,6,.03,12,.1,17.99.27,13.07.35,26.25,1.12,39.17,3.45,13.11,2.36,25.31,6.2,37.22,12.26,11.71,5.96,22.42,13.74,31.71,23.03,9.29,9.29,17.07,20,23.03,31.71,6.06,11.91,9.91,24.11,12.26,37.22,2.32,12.92,3.09,26.1,3.45,39.17.16,6,.23,11.99.27,17.99.04,7.12.04,14.24.04,21.36v139Z"/>
      <g>
        <circle class="cls-2" cx="280.85" cy="242.22" r="183.65"/>
        <circle class="cls-3" cx="196.04" cy="266.01" r="152.54"/>
        <circle class="cls-1" cx="235.09" cy="280.65" r="152.54"/>
        <circle cx="257.05" cy="257.47" r="112.79"/>
      </g>
    </g>
  </g>
</svg>