<svg width="36" height="36" viewBox="0 0 36 36" fill="none" xmlns="http://www.w3.org/2000/svg">
<path d="M3 27V23L8 25L12 22L19 24L23 21L27 23L31 21L33 24V28L31 25L27 27L23 25L19 28L12 26L8 29L3 27Z" fill="#848484"/>
<path d="M36 0H0L5 29H31L36 0Z" fill="url(#paint0_linear_1_2)"/>
<path d="M5 28L3 23V27L5 32L9 31L13 33L17 31L22 32L25 30L30 31L33 28V24L30 27L25 26L22 28L17 27L13 29L9 27L5 28Z" fill="white"/>
<defs>
<linearGradient id="paint0_linear_1_2" x1="18" y1="0" x2="18" y2="29" gradientUnits="userSpaceOnUse">
<stop stop-color="white" stop-opacity="0"/>
<stop offset="1" stop-color="white" stop-opacity="0.5"/>
</linearGradient>
</defs>
</svg>
