<?xml version="1.0" encoding="UTF-8"?>
<svg xmlns="http://www.w3.org/2000/svg" viewBox="0 0 64 64">
  <defs>
    <style>
      .cls-1 {
        isolation: isolate;
      }

      .cls-2 {
        mix-blend-mode: multiply;
      }

      .cls-3 {
        fill: #ccc;
      }

      .cls-4 {
        fill: #b3b3b3;
      }

      .cls-5 {
        fill: gray;
      }
    </style>
  </defs>
  <g class="cls-1">
    <g id="Layer_1" data-name="Layer 1">
      <g>
        <path class="cls-3" d="M37.67,5.96c-4.26-.06-8.3.86-11.88,2.53-2.92,1.36-5.91,2.55-8.97,3.6C7.08,15.43.17,24.46.45,35c.33,12.3,10.64,22.42,23.47,23.01,3.02.14,5.93-.24,8.64-1.06,1.52-.46,3.1-.69,4.69-.69,0,0,.02,0,.02,0,14.37,0,26.04-11.05,26.26-24.76.22-13.83-11.45-25.36-25.88-25.55Z"/>
        <path class="cls-4" d="M35.88,10.84c-6.4-.27-12.29,1.66-16.78,4.99-1.42,1.05-2.88,2.04-4.43,2.94-5.79,3.34-9.61,9.1-9.61,15.64,0,10.33,9.52,18.7,21.26,18.7.25,0,.5,0,.75-.01,1.49-.05,2.98,0,4.46.18,1.04.12,2.1.19,3.18.19,13.76,0,24.85-10.09,24.21-22.32-.57-10.91-10.63-19.77-23.03-20.29Z"/>
        <ellipse class="cls-5" cx="32" cy="32.71" rx="18.47" ry="16.7"/>
        <circle class="cls-2" cx="32" cy="33.26" r="13.43"/>
      </g>
    </g>
  </g>
</svg>